<svg width="86" height="81" viewBox="0 0 86 81" fill="none" xmlns="http://www.w3.org/2000/svg">
<path d="M42.5845 0L79.4637 20.25V60.75L42.5845 81L5.70524 60.75V20.25L42.5845 0Z" fill="white"/>
<path d="M42.3014 3.76746L75.5049 21.9992V58.4626L42.3014 76.6944L9.09779 58.4626V21.9992L42.3014 3.76746Z" fill="#4BC9FF"/>
<path d="M52.0635 28.2559H64.2305V66.2115V67.2374L52.0635 73.7343V28.2559Z" fill="white"/>
<path d="M35.3691 16.1462H48.9509V71.2351V76.6944H35.3691V16.1462Z" fill="white"/>
<path d="M19.8066 28.2559H32.2566V69.1441V73.1961L19.8066 66.5655V28.2559Z" fill="white"/>
<path d="M48.9021 31.8214L52.0555 28.35V45.1285L48.9021 49.7571V31.8214Z" fill="#31A8FF"/>
<path d="M32.2427 28.35L35.2844 31.2428V48.6L32.2427 45.1285V28.35Z" fill="#31A8FF"/>
<path d="M21.7654 30.15L30.2823 30.15V70.2L21.7654 65.1892V30.15Z" fill="#9AD5FF"/>
<path d="M36.9065 18H47.316V73.3977L42.545 76.5L36.9065 73.3977V18Z" fill="#9AD5FF"/>
<path d="M53.9404 29.7H62.4573V65.25L53.9404 70.2V29.7Z" fill="#9AD5FF"/>
</svg>
